<svg width="3572" height="2402" xmlns="http://www.w3.org/2000/svg" xmlns:xlink="http://www.w3.org/1999/xlink" xml:space="preserve" overflow="hidden"><defs><clipPath id="clip0"><rect x="476" y="0" width="3572" height="2402"/></clipPath><linearGradient x1="3230" y1="760" x2="3662" y2="760" gradientUnits="userSpaceOnUse" spreadMethod="reflect" id="fill1"><stop offset="0" stop-color="#E7FFE7"/><stop offset="0.5" stop-color="#D1F6EE"/><stop offset="1" stop-color="#BBEEF6"/></linearGradient><linearGradient x1="3167" y1="352" x2="3437" y2="352" gradientUnits="userSpaceOnUse" spreadMethod="reflect" id="fill2"><stop offset="0" stop-color="#E7FFE7"/><stop offset="0.5" stop-color="#D1F6EE"/><stop offset="1" stop-color="#BBEEF6"/></linearGradient><linearGradient x1="3712" y1="880" x2="3847" y2="880" gradientUnits="userSpaceOnUse" spreadMethod="reflect" id="fill3"><stop offset="0" stop-color="#E7FFE7"/><stop offset="0.5" stop-color="#D1F6EE"/><stop offset="1" stop-color="#BBEEF6"/></linearGradient><linearGradient x1="1721" y1="915" x2="1828" y2="915" gradientUnits="userSpaceOnUse" spreadMethod="reflect" id="fill4"><stop offset="0" stop-color="#E7FFE7"/><stop offset="0.5" stop-color="#D1F6EE"/><stop offset="1" stop-color="#BBEEF6"/></linearGradient><linearGradient x1="3712" y1="2094.5" x2="3847" y2="2094.5" gradientUnits="userSpaceOnUse" spreadMethod="reflect" id="fill5"><stop offset="0" stop-color="#E7FFE7"/><stop offset="0.5" stop-color="#D1F6EE"/><stop offset="1" stop-color="#BBEEF6"/></linearGradient><linearGradient x1="3628" y1="379" x2="3712" y2="379" gradientUnits="userSpaceOnUse" spreadMethod="reflect" id="fill6"><stop offset="0" stop-color="#E7FFE7"/><stop offset="0.5" stop-color="#D1F6EE"/><stop offset="1" stop-color="#BBEEF6"/></linearGradient><linearGradient x1="1676" y1="1948.5" x2="1759" y2="1948.5" gradientUnits="userSpaceOnUse" spreadMethod="reflect" id="fill7"><stop offset="0" stop-color="#E7FFE7"/><stop offset="0.5" stop-color="#D1F6EE"/><stop offset="1" stop-color="#BBEEF6"/></linearGradient><linearGradient x1="1705" y1="416.5" x2="1788" y2="416.5" gradientUnits="userSpaceOnUse" spreadMethod="reflect" id="fill8"><stop offset="0" stop-color="#E7FFE7"/><stop offset="0.5" stop-color="#D1F6EE"/><stop offset="1" stop-color="#BBEEF6"/></linearGradient><linearGradient x1="3706" y1="562.5" x2="3748" y2="562.5" gradientUnits="userSpaceOnUse" spreadMethod="reflect" id="fill9"><stop offset="0" stop-color="#E7FFE7"/><stop offset="0.5" stop-color="#D1F6EE"/><stop offset="1" stop-color="#BBEEF6"/></linearGradient><linearGradient x1="1643" y1="765" x2="1684" y2="765" gradientUnits="userSpaceOnUse" spreadMethod="reflect" id="fill10"><stop offset="0" stop-color="#E7FFE7"/><stop offset="0.5" stop-color="#D1F6EE"/><stop offset="1" stop-color="#BBEEF6"/></linearGradient><linearGradient x1="3882" y1="1948.5" x2="3924" y2="1948.5" gradientUnits="userSpaceOnUse" spreadMethod="reflect" id="fill11"><stop offset="0" stop-color="#E7FFE7"/><stop offset="0.5" stop-color="#D1F6EE"/><stop offset="1" stop-color="#BBEEF6"/></linearGradient><linearGradient x1="2156" y1="84.0002" x2="2198" y2="84.0002" gradientUnits="userSpaceOnUse" spreadMethod="reflect" id="fill12"><stop offset="0" stop-color="#E7FFE7"/><stop offset="0.5" stop-color="#D1F6EE"/><stop offset="1" stop-color="#BBEEF6"/></linearGradient><linearGradient x1="1703" y1="1279.5" x2="3903" y2="1279.5" gradientUnits="userSpaceOnUse" spreadMethod="reflect" id="fill13"><stop offset="0" stop-color="#E7FFE7"/><stop offset="0.5" stop-color="#D1F6EE"/><stop offset="1" stop-color="#BBEEF6"/></linearGradient><linearGradient x1="3497" y1="1512.5" x2="3794" y2="1512.5" gradientUnits="userSpaceOnUse" spreadMethod="reflect" id="fill14"><stop offset="0" stop-color="#B2DDEF"/><stop offset="0.5" stop-color="#6DC2E7"/><stop offset="1" stop-color="#29A7DF"/></linearGradient><linearGradient x1="3772" y1="1694.5" x2="4048" y2="1694.5" gradientUnits="userSpaceOnUse" spreadMethod="reflect" id="fill15"><stop offset="0" stop-color="#B2DDEF"/><stop offset="0.5" stop-color="#6DC2E7"/><stop offset="1" stop-color="#29A7DF"/></linearGradient><linearGradient x1="3428" y1="1809" x2="3807" y2="1809" gradientUnits="userSpaceOnUse" spreadMethod="reflect" id="fill16"><stop offset="0" stop-color="#3AC3E3"/><stop offset="0.0036" stop-color="#3AC3E3"/><stop offset="1" stop-color="#584E9F"/></linearGradient><linearGradient x1="3628" y1="2187" x2="3946" y2="2187" gradientUnits="userSpaceOnUse" spreadMethod="reflect" id="fill17"><stop offset="0" stop-color="#F38C96"/><stop offset="0.5" stop-color="#F06F93"/><stop offset="1" stop-color="#ED5391"/></linearGradient><linearGradient x1="2864" y1="1694" x2="3310" y2="1694" gradientUnits="userSpaceOnUse" spreadMethod="reflect" id="fill18"><stop offset="0" stop-color="#F38C96"/><stop offset="0.5" stop-color="#F06F93"/><stop offset="1" stop-color="#ED5391"/></linearGradient><linearGradient x1="2764" y1="1861.5" x2="3239" y2="1861.5" gradientUnits="userSpaceOnUse" spreadMethod="reflect" id="fill19"><stop offset="0" stop-color="#3AC3E3"/><stop offset="0.0036" stop-color="#3AC3E3"/><stop offset="1" stop-color="#584E9F"/></linearGradient><linearGradient x1="2611" y1="1682.5" x2="3066" y2="1682.5" gradientUnits="userSpaceOnUse" spreadMethod="reflect" id="fill20"><stop offset="0" stop-color="#3AC3E3"/><stop offset="0.0036" stop-color="#3AC3E3"/><stop offset="1" stop-color="#584E9F"/></linearGradient><linearGradient x1="2428" y1="1208" x2="2866" y2="1208" gradientUnits="userSpaceOnUse" spreadMethod="reflect" id="fill21"><stop offset="0" stop-color="#75C0DF"/><stop offset="0.292" stop-color="#759CDA"/><stop offset="0.5651" stop-color="#7681D6"/><stop offset="0.8092" stop-color="#7672D4"/><stop offset="1" stop-color="#766CD3"/></linearGradient><linearGradient x1="2482" y1="1354" x2="3037" y2="1354" gradientUnits="userSpaceOnUse" spreadMethod="reflect" id="fill22"><stop offset="0" stop-color="#75C0DF"/><stop offset="0.292" stop-color="#759CDA"/><stop offset="0.5651" stop-color="#7681D6"/><stop offset="0.8092" stop-color="#7672D4"/><stop offset="1" stop-color="#766CD3"/></linearGradient><linearGradient x1="3358" y1="1295.5" x2="3521" y2="1295.5" gradientUnits="userSpaceOnUse" spreadMethod="reflect" id="fill23"><stop offset="0" stop-color="#F38C96"/><stop offset="0.5" stop-color="#F06F93"/><stop offset="1" stop-color="#ED5391"/></linearGradient></defs><g clip-path="url(#clip0)" transform="translate(-476 0)"><path d="M3662 760C3662 879.294 3565.29 976 3446 976 3326.71 976 3230 879.294 3230 760 3230 640.707 3326.71 544 3446 544 3565.29 544 3662 640.707 3662 760Z" fill="url(#fill1)" fill-rule="evenodd"/><path d="M3437 352C3437 426.559 3376.56 487.001 3302 487.001 3227.44 487.001 3167 426.559 3167 352 3167 277.441 3227.44 217 3302 217 3376.56 217 3437 277.441 3437 352Z" fill="url(#fill2)" fill-rule="evenodd"/><path d="M3847 880C3847 917.556 3816.78 948.001 3779.5 948.001 3742.22 948.001 3712 917.556 3712 880 3712 842.445 3742.22 812 3779.5 812 3816.78 812 3847 842.445 3847 880Z" fill="url(#fill3)" fill-rule="evenodd"/><path d="M1828 915C1828 944.823 1804.05 969 1774.5 969 1744.95 969 1721 944.823 1721 915 1721 885.177 1744.95 861 1774.5 861 1804.05 861 1828 885.177 1828 915Z" fill="url(#fill4)" fill-rule="evenodd"/><path d="M3847 2094.5C3847 2131.78 3816.78 2162 3779.5 2162 3742.22 2162 3712 2131.78 3712 2094.5 3712 2057.22 3742.22 2027 3779.5 2027 3816.78 2027 3847 2057.22 3847 2094.5Z" fill="url(#fill5)" fill-rule="evenodd"/><path d="M3712 379C3712 402.196 3693.2 421 3670 421 3646.8 421 3628 402.196 3628 379 3628 355.804 3646.8 337 3670 337 3693.2 337 3712 355.804 3712 379Z" fill="url(#fill6)" fill-rule="evenodd"/><path d="M1759 1948.5C1759 1971.42 1740.42 1990 1717.5 1990 1694.58 1990 1676 1971.42 1676 1948.5 1676 1925.58 1694.58 1907 1717.5 1907 1740.42 1907 1759 1925.58 1759 1948.5Z" fill="url(#fill7)" fill-rule="evenodd"/><path d="M1788 416.5C1788 439.419 1769.42 458 1746.5 458 1723.58 458 1705 439.419 1705 416.5 1705 393.581 1723.58 375 1746.5 375 1769.42 375 1788 393.581 1788 416.5Z" fill="url(#fill8)" fill-rule="evenodd"/><path d="M3748 562.5C3748 573.821 3738.6 583.001 3727 583.001 3715.41 583.001 3706 573.826 3706 562.5 3706 551.18 3715.4 542 3727 542 3738.6 542.006 3748 551.18 3748 562.5Z" fill="url(#fill9)" fill-rule="evenodd"/><path d="M1684 765C1684 776.597 1674.82 786.001 1663.5 786.001 1652.18 786.001 1643 776.597 1643 765 1643 753.404 1652.18 744 1663.5 744 1674.82 744.006 1684 753.404 1684 765Z" fill="url(#fill10)" fill-rule="evenodd"/><path d="M3924 1948.5C3924 1959.82 3914.59 1969 3903 1969 3891.4 1969 3882 1959.82 3882 1948.5 3882 1937.18 3891.4 1928 3903 1928 3914.59 1928.01 3924 1937.18 3924 1948.5Z" fill="url(#fill11)" fill-rule="evenodd"/><path d="M2198 84.0002C2198 95.5965 2188.6 105 2177 105 2165.41 105 2156 95.5965 2156 84.0002 2156 72.4039 2165.4 62.9999 2177 62.9999 2188.6 63.0061 2198 72.4039 2198 84.0002Z" fill="url(#fill12)" fill-rule="evenodd"/><path d="M3823 2291C3823 2352.3 3334.99 2402 2733 2402 2131.01 2402 1643 2352.3 1643 2291 1643 2229.7 2131.01 2180 2733 2180 3334.99 2180 3823 2229.7 3823 2291Z" fill="#F1F0FE" fill-rule="evenodd"/><path d="M2136.88 834.613C1986.61 941.085 1850.58 1076.73 1768.36 1246.74 1723.52 1339.47 1695.23 1443.8 1704.89 1547.37 1720.97 1719.63 1831.71 1891.29 1987.22 1947.03 2182.06 2016.88 2432.33 1977.99 2538.87 1944.89 2831.38 1854.02 3148.83 1820.67 3440.12 1915.82 3506.52 1937.51 3573.43 1966.05 3642.8 1961.22 3761.94 1952.93 3858.64 1843.09 3889.12 1721.45 3919.61 1599.81 3895.76 1470.13 3857.29 1351.04 3796.53 1162.96 3698.45 987.075 3564.49 847.26 3425.86 702.581 3008.42 436.886 2459.22 656.999 2345.67 702.51 2237.71 763.175 2136.88 834.613Z" fill="url(#fill13)" fill-rule="evenodd"/><path d="M3726.11 1735.06C3725.79 1693.28 3727.05 1649.92 3710.17 1611.7 3694.45 1576.13 3664.77 1549.06 3637.8 1521.03 3581.02 1462.01 3532.49 1392.77 3510.28 1313.96 3484.99 1224.26 3496.19 1124.84 3540.79 1043 3641.92 1119.67 3743.71 1212.34 3769.81 1336.51 3787.22 1419.33 3768.26 1504.78 3759.63 1588.97 3746.29 1718.99 3758.03 1851.52 3794 1977.17 3786.65 1986.04 3770.98 1981.74 3764.8 1972.01 3751.26 1950.66 3745.45 1896.82 3739.42 1871.14 3728.98 1826.68 3726.45 1780.58 3726.11 1735.06Z" fill="url(#fill14)" fill-rule="evenodd"/><path d="M3773.55 1838.1C3771.95 1818.9 3770.38 1799.23 3775.48 1780.64 3780.23 1763.25 3790.53 1747.91 3796.8 1731 3815.46 1680.7 3796.57 1624.54 3802.33 1571.21 3807.79 1520.62 3835.02 1475.34 3861.59 1431.92 3892.18 1381.95 3922.77 1331.97 3953.35 1282 3981.13 1324.48 4009.14 1367.38 4026.94 1414.89 4055.4 1490.83 4055.67 1577.71 4023.75 1652.26 3991.83 1726.81 3927.08 1787.57 3849.26 1810.82 3834.33 1815.28 3817.16 1819.78 3810.01 1833.61 3805.64 1842.08 3806.2 1852.14 3806.87 1861.64 3812.43 1940.24 3828.28 2025.99 3822.56 2104.16 3770.32 2122.75 3790.25 2044.97 3788.53 2017.59 3784.79 1957.72 3778.54 1897.89 3773.55 1838.1Z" fill="url(#fill15)" fill-rule="evenodd"/><path d="M3788.42 1917.47C3781.24 1885.61 3770.38 1852.4 3745.23 1831.56 3733.61 1821.92 3719.63 1815.57 3707.55 1806.53 3647.82 1761.86 3650.02 1667.35 3596.53 1615.37 3549.32 1569.48 3469.24 1567.33 3428 1516 3433.77 1598.29 3440.25 1683.23 3478.29 1756.43 3516.33 1829.63 3594.73 1888.5 3676.46 1877.3 3686.5 1875.92 3697.11 1873.6 3706.46 1877.5 3714.66 1880.91 3720.27 1888.5 3725.09 1895.96 3763.08 1954.9 3776.63 2029.08 3761.94 2097.65 3760.53 2104.25 3799.34 2102.95 3805.13 2096.41 3809.83 2091.1 3804.23 2060.87 3803.94 2054.25 3801.92 2007.95 3798.66 1962.84 3788.42 1917.47Z" fill="url(#fill16)" fill-rule="evenodd"/><path d="M3917.43 2283 3656.57 2283 3628 2091 3946 2091Z" fill="url(#fill17)" fill-rule="evenodd"/><path d="M3612 2037 3962 2037 3962 2091 3612 2091Z" fill="#8C165A" fill-rule="evenodd"/><path d="M3271.45 2264 3294 2264 3205.4 1702 3154 1702Z" fill="#2E3092" fill-rule="evenodd"/><path d="M2849.55 2264 2827 2264 2915.6 1702 2967 1702Z" fill="#2E3092" fill-rule="evenodd"/><path d="M3310 1694C3310 1733.21 3210.16 1765 3087 1765 2963.84 1765 2864 1733.21 2864 1694 2864 1654.79 2963.84 1623 3087 1623 3210.16 1623 3310 1654.79 3310 1694Z" fill="url(#fill18)" fill-rule="evenodd"/><path d="M2849.31 2279.89C2807.04 2305.58 2747.74 2324.43 2698.48 2328.59 2690.75 2329.24 2682.54 2329.58 2675.72 2325.88 2668.9 2322.18 2664.49 2312.94 2668.57 2306.34 2683.47 2295.2 2716.32 2283.52 2737.38 2267.58 2751.31 2257.04 2764.69 2244.72 2771.58 2228.64 2776.36 2217.48 2777.84 2204.87 2784.32 2194.6 2805.06 2161.74 2849.32 2194.61 2849.32 2194.61 2838.4 2216.48 2878.1 2262.4 2849.31 2279.89Z" fill="#2E3092" fill-rule="evenodd"/><path d="M3238.82 1579.87C3221.7 1642.07 3176.99 1661.33 3130.76 1682.71 3071.91 1709.94 3023.54 1740.83 2985.29 1768 2946.97 1795.23 2918.7 1818.69 2900.25 1830.88 2899.82 1831.18 2899.4 1831.48 2899.03 1831.73 2858.7 1857.92 2849.62 2194.76 2849.62 2194.76 2830.8 2200.18 2784.5 2212.49 2775.91 2194.82 2767.39 2177.33 2759.71 1825.27 2766.77 1792.73 2766.83 1792.49 2766.9 1792.24 2766.95 1792 2769.33 1783.41 2794.49 1753.07 2830.73 1715.67 2838.96 1707.14 2847.85 1698.18 2857.17 1688.98 2922.05 1625.2 3007.88 1551.78 3066.54 1527.36 3078.54 1522.3 3089.44 1519.37 3098.76 1519.01 3119.85 1518.16 3244.37 1559.59 3238.82 1579.87Z" fill="url(#fill19)" fill-rule="evenodd"/><path d="M3045.65 1802.07C3045.65 1802.07 3037.74 1842.39 3020.54 1853.14 3014.33 1857.01 2963.52 1847.44 2899.76 1831.31 2857.85 1820.75 2810.31 1807.31 2766.3 1793.08 2692.47 1769.22 2628.38 1743.06 2616.74 1723.98 2598.43 1686.35 2624.39 1644.46 2687.83 1614.69 2742.56 1588.99 2890.55 1526.18 2890.55 1526.18 2920.83 1506.25 3013.35 1505.33 3066 1527.1 3007.41 1551.55 2921.55 1625.18 2856.68 1689.1 2833.92 1694.94 2816.26 1699.92 2808.22 1703.66 2813.71 1707.72 2821.23 1711.79 2830.26 1715.85 2869.3 1733.55 2935.87 1751.26 2984.79 1768.3 3018.12 1779.91 3043.17 1791.25 3045.65 1802.07Z" fill="url(#fill20)" fill-rule="evenodd"/><path d="M3011.58 1840.78C3009.9 1854.44 3014.69 1854.63 3013.53 1868.34 3011.66 1890.61 2998.81 1910.41 2993.51 1932.13 2991.63 1939.88 2976.56 1985.7 3006.08 1969.6 3044.16 1948.81 3126.96 1853.69 3113.54 1821.78 3106.88 1805.95 3069.28 1797 3037.26 1797 3037.25 1796.99 3016.45 1801.03 3011.58 1840.78Z" fill="#2E3092" fill-rule="evenodd"/><path d="M2872.64 1319.95C2860.57 1330.97 2843.45 1334.27 2827.2 1336.28 2810.95 1338.28 2793.99 1339.63 2779.87 1347.9 2765.76 1356.17 2755.61 1373.94 2761.91 1389.01 2767.47 1402.33 2782.97 1408.26 2797.16 1411.08 2839.66 1419.53 2883.54 1412.7 2926.33 1405.85 2936.61 1404.21 2947.33 1402.4 2955.75 1396.29 2967.36 1387.88 2972.24 1373.15 2975.66 1359.24 2984.13 1324.78 2987.9 1289.18 2986.82 1253.72 2986.38 1239.1 2984.81 1223.66 2976.17 1211.82 2965.28 1196.91 2892.54 1194.06 2891.14 1215.27 2888.61 1253.43 2888.89 1305.14 2872.64 1319.95Z" fill="#FFC8B6" fill-rule="evenodd"/><path d="M2917.21 1106.64C2903.17 1135.18 2892.9 1183.35 2891 1215.08 2911.44 1219.35 2939.26 1230.4 2960.03 1232.49 2980.8 1234.58 3003.67 1230.46 3017.94 1215.25 3030.25 1202.14 3034.04 1183.32 3035.9 1165.45 3038.94 1136.2 3048.82 1049.2 3004.59 1043.31 2971.96 1038.95 2929.34 1081.97 2917.21 1106.64Z" fill="#60C4F6" fill-rule="evenodd"/><path d="M2930.72 1216.46C2953.2 1352.94 2963.18 1429.83 2891 1526.27 3029.5 1503.37 3107.96 1605.86 3239.01 1579.69 3271.74 1477.2 3251.56 1349.84 3254.58 1200.14 3255.44 1157.4 3226.89 1079.84 3198.38 1047.98 3159.05 1004.01 3050.19 1020.75 2999.55 1038.34 2919.55 1066.13 2918.71 1143.49 2930.72 1216.46Z" fill="#60C4F6" fill-rule="evenodd"/><path d="M3309.99 1305.82C3311.07 1367.67 3209.57 1378.23 3185.21 1378.18 3140.02 1378.09 3088.07 1383.33 3043.42 1376.43 3028.16 1374.07 2957.49 1361.82 2948.53 1349.28 2924.83 1316.02 2984.57 1312.24 2990.77 1311.71 3026.39 1308.67 3031.29 1318.55 3054.33 1325.38 3093.44 1336.98 3226.25 1308.65 3225.71 1304.1 3222.61 1277.86 3204.06 1249.89 3196.11 1224.69 3193.38 1216.02 3299.71 1181.24 3301.92 1200.97 3303.81 1217.83 3309.57 1281.72 3309.99 1305.82Z" fill="#FFC8B6" fill-rule="evenodd"/><path d="M3301.98 1200.38C3303.47 1210.39 3200.05 1240.65 3196.01 1224.19 3187.28 1188.64 3118.42 1013.66 3169.99 1027.81 3248.55 1049.36 3289.96 1119.16 3301.98 1200.38Z" fill="#60C4F6" fill-rule="evenodd"/><path d="M3109.32 974.4C3108.39 967.827 3090.22 928.988 3058.54 929 3030.06 929.018 3005.65 959.75 3013.48 987.291 3013.48 987.291 3014.39 1046.83 3016.95 1074.15 3022 1128.02 3089.13 1119.19 3125.14 1061 3129.78 1053.51 3114.29 1009.18 3109.32 974.4Z" fill="#F2B5A5" fill-rule="evenodd"/><path d="M2941.28 919.783C2943.64 960.033 2954.56 1006.66 2991.54 1022.71 3021.28 1035.61 3080.3 1019.38 3109.4 974.684 3127.08 947.505 3137.15 923.911 3142.27 891.889 3145.97 868.715 3139.01 773.007 3041.2 766.039 2941.09 758.901 2933.45 786.238 2941.28 919.783Z" fill="#FFC8B6" fill-rule="evenodd"/><path d="M2920.67 735.659C2903.3 743.41 2890.4 764.512 2898.46 781.694 2907 799.908 2931.36 802.69 2951.52 802.932 2978.37 803.25 3005.23 803.575 3032.07 803.893 3046.36 804.063 3063.15 805.567 3070.63 817.715 3081.62 835.581 3074.51 867.134 3091.66 879.247 3093.74 870.795 3105.84 860.096 3113.76 863.739 3135.04 873.536 3136.14 912.297 3108.03 918.422 3108.07 934.272 3109.51 958.15 3109.55 974 3151.19 959.777 3170 879.023 3170 850.075 3170 775.434 3131.45 767.317 3131.45 767.317 3133.05 751.385 3103.39 722.549 3049.91 717.103 3011.88 713.236 2956.71 719.566 2920.67 735.659Z" fill="#2E3092" fill-rule="evenodd"/><path d="M1994 1366 3600 1366 3600 1420 1994 1420Z" fill="#2E3092" fill-rule="evenodd"/><path d="M1998.77 2295 1977 2295 2186.03 1420 2247 1420Z" fill="#2E3092" fill-rule="evenodd"/><path d="M3606.22 2295 3628 2295 3418.96 1420 3358 1420Z" fill="#2E3092" fill-rule="evenodd"/><path d="M2812.51 1087.81C2810.82 1079.76 2803.72 1074 2795.5 1074L2436.11 1074C2430.96 1074 2427.12 1078.73 2428.18 1083.77L2482.51 1342 2866 1342 2812.51 1087.81Z" fill="url(#fill21)" fill-rule="evenodd"/><path d="M3033.05 1342 2482 1342 2482 1366 3037 1366 3037 1346C3037.01 1343.79 3035.23 1342 3033.05 1342Z" fill="url(#fill22)" fill-rule="evenodd"/><path d="M2675 1215C2675 1231.02 2662.02 1244 2646 1244 2629.98 1244 2617 1231.02 2617 1215 2617 1198.98 2629.98 1186 2646 1186 2662.02 1186 2675 1198.98 2675 1215Z" fill="#FFFFFF" fill-rule="evenodd"/><path d="M3500.96 1250.29C3491.37 1244.81 3480.97 1244.97 3470.88 1247.61L3470.88 1233.34C3470.88 1228.73 3467.15 1225 3462.56 1225L3366.32 1225C3361.72 1225 3358 1228.73 3358 1233.34L3358 1357.66C3358 1362.27 3361.72 1366 3366.32 1366L3462.55 1366C3467.15 1366 3470.87 1362.27 3470.87 1357.66L3470.87 1338.21C3478.81 1339.07 3486.96 1338.38 3492.63 1336.82 3511.75 1331.57 3521.17 1316.09 3521 1296.84 3520.84 1279.6 3517.17 1259.57 3500.96 1250.29ZM3500.97 1299.08C3500.08 1312.83 3490.56 1317.21 3478.32 1317.13 3475.89 1317.11 3473.39 1316.7 3470.87 1316.18L3470.87 1266.37C3479.13 1263.61 3487.94 1262.7 3494.09 1268.69 3501.37 1275.78 3501.57 1289.73 3500.97 1299.08Z" fill="url(#fill23)" fill-rule="evenodd"/><path d="M3378.5 1181.93C3380.07 1178.96 3382.67 1176.68 3384.76 1174.06 3392.14 1164.8 3392.51 1150.62 3385.62 1141 3391.92 1143.36 3397.12 1148.53 3399.5 1154.82 3401.88 1161.11 3401.41 1168.42 3398.24 1174.35 3396.7 1177.25 3394.58 1179.79 3392.98 1182.65 3388.82 1190.1 3388.77 1199.33 3392.4 1207 3381.91 1206.15 3373.46 1191.48 3378.5 1181.93Z" fill="#FFFFFF" fill-rule="evenodd"/><path d="M3407.5 1181.93C3409.07 1178.96 3411.67 1176.68 3413.76 1174.06 3421.14 1164.8 3421.51 1150.62 3414.62 1141 3420.93 1143.36 3426.12 1148.53 3428.5 1154.82 3430.88 1161.11 3430.41 1168.42 3427.24 1174.35 3425.7 1177.25 3423.58 1179.79 3421.99 1182.65 3417.82 1190.1 3417.78 1199.33 3421.4 1207 3410.91 1206.15 3402.45 1191.48 3407.5 1181.93Z" fill="#FFFFFF" fill-rule="evenodd"/><path d="M3435.5 1181.93C3437.07 1178.96 3439.67 1176.68 3441.76 1174.06 3449.14 1164.8 3449.51 1150.62 3442.62 1141 3448.92 1143.36 3454.12 1148.53 3456.5 1154.82 3458.88 1161.11 3458.41 1168.42 3455.24 1174.35 3453.7 1177.25 3451.58 1179.79 3449.98 1182.65 3445.82 1190.1 3445.77 1199.33 3449.4 1207 3438.91 1206.15 3430.45 1191.48 3435.5 1181.93Z" fill="#FFFFFF" fill-rule="evenodd"/><path d="M2577 156 2824 156 2824 248 2577 248Z" fill="#8FAADC" fill-rule="evenodd" fill-opacity="0.301961"/><path d="M2987 0 3233 0 3233 92.0001 2987 92.0001Z" fill="#8FAADC" fill-rule="evenodd" fill-opacity="0.301961"/><path d="M3004 284 3250 284 3250 375 3004 375Z" fill="#8FAADC" fill-rule="evenodd" fill-opacity="0.301961"/><path d="M2216 389 2462 389 2462 481 2216 481Z" fill="#8FAADC" fill-rule="evenodd" fill-opacity="0.301961"/><path d="M2138 766 2384 766 2384 858 2138 858Z" fill="#8FAADC" fill-rule="evenodd" fill-opacity="0.301961"/><path d="M2509 758 2756 758 2756 849 2509 849Z" fill="#8FAADC" fill-rule="evenodd" fill-opacity="0.301961"/><path d="M2987.52 45.4999 2824.5 200.636 3004.5 330.5" stroke="#3F3D56" stroke-width="3.04557" stroke-miterlimit="8" fill="none" fill-rule="evenodd"/><path d="M2577.5 200.5 2339.5 389.5" stroke="#3F3D56" stroke-width="3.04557" stroke-miterlimit="8" fill="none" fill-rule="evenodd"/><path d="M2261.5 766.5 2339.64 481.5 2633.5 758.087" stroke="#3F3D56" stroke-width="3.04557" stroke-miterlimit="8" fill="none" fill-rule="evenodd"/><path d="M916 251 1163 251 1163 342 916 342Z" fill="#8FAADC" fill-rule="evenodd" fill-opacity="0.301961"/><path d="M1326 93.9998 1572 93.9998 1572 186 1326 186Z" fill="#8FAADC" fill-rule="evenodd" fill-opacity="0.301961"/><path d="M1343 378 1589 378 1589 470 1343 470Z" fill="#8FAADC" fill-rule="evenodd" fill-opacity="0.301961"/><path d="M554 483 801 483 801 575 554 575Z" fill="#8FAADC" fill-rule="evenodd" fill-opacity="0.301961"/><path d="M476 861 723 861 723 952 476 952Z" fill="#8FAADC" fill-rule="evenodd" fill-opacity="0.301961"/><path d="M848 852 1095 852 1095 944 848 944Z" fill="#8FAADC" fill-rule="evenodd" fill-opacity="0.301961"/><path d="M1326.52 140.5 1163.5 295.092 1343.5 424.5" stroke="#3F3D56" stroke-width="3.04557" stroke-miterlimit="8" fill="none" fill-rule="evenodd"/><path d="M916.5 294.5 678.5 483.5" stroke="#3F3D56" stroke-width="3.04557" stroke-miterlimit="8" fill="none" fill-rule="evenodd"/><path d="M599.5 860.5 677.635 575.5 971.5 852.087" stroke="#3F3D56" stroke-width="3.04557" stroke-miterlimit="8" fill="none" fill-rule="evenodd"/><path d="M1589.5 424.5 1868.5 424.5" stroke="#3F3D56" stroke-width="3.04557" stroke-miterlimit="8" fill="none" fill-rule="evenodd"/><path d="M1743 377 2032 377 2032 469 1743 469Z" fill="#8FAADC" fill-rule="evenodd"/><path d="M2033.5 423.5 2216.5 423.5" stroke="#3F3D56" stroke-width="3.04557" stroke-miterlimit="8" fill="none" fill-rule="evenodd"/><path d="M1741.5 423.5 1572.5 140.5" stroke="#3F3D56" stroke-width="3.04557" stroke-miterlimit="8" fill="none" fill-rule="evenodd"/></g></svg>